<?xml version="1.0" encoding="UTF-8" standalone="no"?>
<!-- Created with Inkscape (http://www.inkscape.org/) -->

<svg
   xmlns:dc="http://purl.org/dc/elements/1.1/"
   xmlns:cc="http://creativecommons.org/ns#"
   xmlns:rdf="http://www.w3.org/1999/02/22-rdf-syntax-ns#"
   xmlns:svg="http://www.w3.org/2000/svg"
   xmlns="http://www.w3.org/2000/svg"
   xmlns:sodipodi="http://sodipodi.sourceforge.net/DTD/sodipodi-0.dtd"
   xmlns:inkscape="http://www.inkscape.org/namespaces/inkscape"
   id="svg3004"
   version="1.1"
   inkscape:version="0.48.5 r10040"
   width="825.635"
   height="268.76"
   xml:space="preserve"
   sodipodi:docname="logo.pdf"><metadata
     id="metadata3010"><rdf:RDF><cc:Work
         rdf:about=""><dc:format>image/svg+xml</dc:format><dc:type
           rdf:resource="http://purl.org/dc/dcmitype/StillImage" /><dc:title></dc:title></cc:Work></rdf:RDF></metadata><defs
     id="defs3008"><clipPath
       clipPathUnits="userSpaceOnUse"
       id="clipPath3018"><path
         d="m 8.504,8.504 643,0 0,198 -643,0 0,-198 z"
         id="path3020" /></clipPath></defs><sodipodi:namedview
     pagecolor="#ffffff"
     bordercolor="#666666"
     borderopacity="1"
     objecttolerance="10"
     gridtolerance="10"
     guidetolerance="10"
     inkscape:pageopacity="0"
     inkscape:pageshadow="2"
     inkscape:window-width="640"
     inkscape:window-height="480"
     id="namedview3006"
     showgrid="false"
     inkscape:zoom="0.38152452"
     inkscape:cx="412.8175"
     inkscape:cy="134.38"
     inkscape:window-x="0"
     inkscape:window-y="0"
     inkscape:window-maximized="0"
     inkscape:current-layer="g3012" /><g
     id="g3012"
     inkscape:groupmode="layer"
     inkscape:label="logo"
     transform="matrix(1.25,0,0,-1.25,0,268.76)"><g
       id="g3014"><g
         id="g3016"
         clip-path="url(#clipPath3018)"><g
           id="g3022"
           transform="translate(102.5332,135.6518)"><path
             d="m 0,0 -11.408,22.813 -14.75,0 c -2.032,0 -3.681,1.648 -3.681,3.682 0,2.032 1.649,3.679 3.681,3.679 l 19.299,0 L 6.585,3.292 C 7.494,1.473 6.755,-0.737 4.938,-1.648 4.41,-1.914 3.849,-2.039 3.295,-2.038 1.944,-2.038 0.645,-1.291 0,0"
             style="fill:#7ea3d3;fill-opacity:1;fill-rule:nonzero;stroke:none"
             id="path3024" /></g><g
           id="g3026"
           transform="translate(122.8477,70.1152)"><path
             d="m 0,0 0,111.942 c 0,2.032 1.653,3.679 3.682,3.679 2.034,0 3.684,-1.647 3.684,-3.679 L 7.366,0 c 0,-2.034 -1.65,-3.681 -3.684,-3.681 C 1.653,-3.681 0,-2.034 0,0"
             style="fill:#7ea3d3;fill-opacity:1;fill-rule:nonzero;stroke:none"
             id="path3028" /></g><g
           id="g3030"
           transform="translate(51.0649,133.6162)"><path
             d="m 0,0 c -2.03,0 -3.681,1.648 -3.681,3.679 0,2.035 1.651,3.684 3.681,3.684 l 121.941,0 c 2.034,0 3.681,-1.649 3.681,-3.684 C 125.622,1.648 123.975,0 121.941,0 L 0,0 z"
             style="fill:#7ea3d3;fill-opacity:1;fill-rule:nonzero;stroke:none"
             id="path3032" /></g><g
           id="g3034"
           transform="translate(102.144,70.1152)"><path
             d="m 0,0 0,67.18 c 0,2.034 1.65,3.684 3.681,3.684 2.032,0 3.68,-1.65 3.68,-3.684 L 7.361,0 c 0,-2.034 -1.648,-3.681 -3.68,-3.681 C 1.65,-3.681 0,-2.034 0,0"
             style="fill:#7ea3d3;fill-opacity:1;fill-rule:nonzero;stroke:none"
             id="path3036" /></g><g
           id="g3038"
           transform="translate(102.459,68.6269)"><path
             d="m 0,0 -18.358,41.521 -16.469,0 0,-0.002 c -2.03,0 -3.679,1.652 -3.679,3.684 0,2.034 1.649,3.68 3.679,3.68 l 21.263,0 L 6.733,2.977 C 7.556,1.117 6.712,-1.057 4.853,-1.881 4.371,-2.092 3.866,-2.194 3.367,-2.194 1.955,-2.194 0.605,-1.375 0,0"
             style="fill:#7ea3d3;fill-opacity:1;fill-rule:nonzero;stroke:none"
             id="path3040" /></g><g
           id="g3042"
           transform="translate(141.7153,70.1152)"><path
             d="m 0,0 0,49.696 c 0,2.035 1.65,3.682 3.682,3.682 2.034,0 3.682,-1.647 3.682,-3.682 L 7.364,0 C 7.364,-2.034 5.716,-3.681 3.682,-3.681 1.65,-3.681 0,-2.034 0,0"
             style="fill:#7ea3d3;fill-opacity:1;fill-rule:nonzero;stroke:none"
             id="path3044" /></g><g
           id="g3046"
           transform="translate(31.2803,66.4346)"><path
             d="m 0,0 c -2.032,0 -3.682,1.647 -3.682,3.681 0,2.032 1.65,3.678 3.682,3.678 l 147.246,0 c 2.035,0 3.684,-1.646 3.684,-3.678 C 150.93,1.647 149.281,0 147.246,0 L 0,0 z"
             style="fill:#7ea3d3;fill-opacity:1;fill-rule:nonzero;stroke:none"
             id="path3048" /></g><g
           id="g3050"
           transform="translate(164.7226,156.6235)"><path
             d="m 0,0 c -2.03,0 -3.679,1.648 -3.679,3.681 0,2.033 1.649,3.682 3.679,3.682 l 49.701,0 c 2.028,0 3.68,-1.649 3.68,-3.682 C 53.381,1.648 51.729,0 49.701,0 L 0,0 z"
             style="fill:#7ea3d3;fill-opacity:1;fill-rule:nonzero;stroke:none"
             id="path3052" /></g><g
           id="g3054"
           transform="translate(165.4023,87.7905)"><path
             d="m 0,0 c -1.929,0.645 -2.974,2.727 -2.33,4.656 l 23.008,69.021 c 0.643,1.93 2.727,2.975 4.654,2.328 1.931,-0.642 2.974,-2.726 2.33,-4.653 L 4.653,2.328 C 4.14,0.785 2.703,-0.191 1.163,-0.191 0.776,-0.191 0.385,-0.129 0,0"
             style="fill:#7ea3d3;fill-opacity:1;fill-rule:nonzero;stroke:none"
             id="path3056" /></g><g
           id="g3058"
           transform="translate(134.8149,37.9038)"><path
             d="m 0,0 c -2.034,0 -3.682,1.65 -3.682,3.681 0,2.033 1.648,3.684 3.682,3.684 l 45.138,0 27.183,88.347 -32.29,0 0,-0.002 c -2.034,0 -3.679,1.651 -3.679,3.685 0,2.03 1.645,3.68 3.679,3.68 l 42.257,0 L 50.575,0 0,0 z"
             style="fill:#7ea3d3;fill-opacity:1;fill-rule:nonzero;stroke:none"
             id="path3060" /></g><g
           id="g3062"
           transform="translate(160.1216,105.5478)"><path
             d="m 0,0 c -2.032,0 -3.677,1.645 -3.677,3.679 0,2.034 1.645,3.68 3.677,3.68 l 41.875,0 c 2.034,0 3.684,-1.646 3.684,-3.68 C 45.559,1.645 43.909,0 41.875,0 L 0,0 z"
             style="fill:#7ea3d3;fill-opacity:1;fill-rule:nonzero;stroke:none"
             id="path3064" /></g><g
           id="g3066"
           transform="translate(226.3838,104.1665)"><path
             d="m 0,0 0,41.414 c 0,2.032 1.648,3.678 3.681,3.678 2.034,0 3.682,-1.646 3.682,-3.678 L 7.363,0 C 7.363,-2.032 5.715,-3.681 3.681,-3.681 1.648,-3.681 0,-2.032 0,0"
             style="fill:#7ea3d3;fill-opacity:1;fill-rule:nonzero;stroke:none"
             id="path3068" /></g><g
           id="g3070"
           transform="translate(203.8359,66.4346)"><path
             d="m 0,0 c -2.032,0 -3.681,1.647 -3.681,3.681 0,2.032 1.649,3.678 3.681,3.678 l 43.255,0.004 0,96.631 0.002,0 c 0,2.032 1.65,3.681 3.679,3.681 2.033,0 3.684,-1.649 3.684,-3.681 L 50.62,0 0,0 z"
             style="fill:#7ea3d3;fill-opacity:1;fill-rule:nonzero;stroke:none"
             id="path3072" /></g><g
           id="g3074"
           transform="translate(257.1143,101.0381)"><path
             d="m 0,0 c -1.728,1.074 -2.259,3.342 -1.184,5.071 l 24.291,39.141 0,26.1 0.002,0 c 0,2.032 1.646,3.682 3.681,3.682 2.033,0 3.682,-1.65 3.682,-3.682 l 0,-28.201 L 5.071,1.189 C 4.372,0.063 3.171,-0.552 1.939,-0.552 1.276,-0.552 0.604,-0.375 0,0"
             style="fill:#7ea3d3;fill-opacity:1;fill-rule:nonzero;stroke:none"
             id="path3076" /></g><g
           id="g3078"
           transform="translate(259.4902,40.251)"><path
             d="m 0,0 c -1.751,1.034 -2.338,3.29 -1.308,5.042 l 17.897,30.427 0.002,61.575 c 0,2.034 1.649,3.684 3.682,3.684 2.031,0 3.681,-1.65 3.681,-3.684 l 0,-63.58 L 5.04,1.31 5.04,1.308 C 4.352,0.141 3.123,-0.508 1.864,-0.508 1.23,-0.508 0.587,-0.341 0,0"
             style="fill:#7ea3d3;fill-opacity:1;fill-rule:nonzero;stroke:none"
             id="path3080" /></g><g
           id="g3082"
           transform="translate(295.8657,133.6162)"><path
             d="m 0,0 c -2.032,0 -3.68,1.648 -3.68,3.679 0,2.035 1.648,3.684 3.68,3.684 l 119.181,0 c 2.034,0 3.679,-1.649 3.679,-3.684 C 122.86,1.648 121.215,0 119.181,0 L 0,0 z"
             style="fill:#7ea3d3;fill-opacity:1;fill-rule:nonzero;stroke:none"
             id="path3084" /></g><g
           id="g3086"
           transform="translate(300.0078,153.8618)"><path
             d="m 0,0 c -2.032,0 -3.679,1.65 -3.679,3.682 0,2.034 1.647,3.683 3.679,3.683 l 52.918,0 c 2.034,0 3.683,-1.649 3.683,-3.683 C 56.601,1.65 54.952,0 52.918,0 L 0,0 z"
             style="fill:#7ea3d3;fill-opacity:1;fill-rule:nonzero;stroke:none"
             id="path3088" /></g><g
           id="g3090"
           transform="translate(300.0078,116.5898)"><path
             d="m 0,0 c -2.032,0 -3.679,1.646 -3.679,3.682 0,2.031 1.647,3.682 3.679,3.682 l 52,0 c 2.032,0 3.68,-1.651 3.68,-3.682 C 55.68,1.646 54.032,0 52,0 L 0,0 z"
             style="fill:#7ea3d3;fill-opacity:1;fill-rule:nonzero;stroke:none"
             id="path3092" /></g><g
           id="g3094"
           transform="translate(300.0078,99.5669)"><path
             d="m 0,0 c -2.032,0 -3.679,1.647 -3.679,3.679 0,2.035 1.647,3.68 3.679,3.68 l 52,0 c 2.032,0 3.68,-1.645 3.68,-3.68 C 55.68,1.647 54.032,0 52,0 L 0,0 z"
             style="fill:#7ea3d3;fill-opacity:1;fill-rule:nonzero;stroke:none"
             id="path3096" /></g><g
           id="g3098"
           transform="translate(303.6885,62.7539)"><path
             d="m 0,0 44.637,-0.001 0,20.708 L 0,20.707 0,0 z m 44.637,-24.85 0,17.488 -51.997,0 0,35.43 59.356,0 0,-31.75 0,-21.168 0.004,0 c 0,-2.03 -1.649,-3.681 -3.681,-3.681 -2.036,0 -3.682,1.651 -3.682,3.681"
             style="fill:#7ea3d3;fill-opacity:1;fill-rule:nonzero;stroke:none"
             id="path3100" /></g><g
           id="g3102"
           transform="translate(373.6348,117.5122)"><path
             d="M 0,0 0,3.682 0,0 z m 3.679,-11.503 33.131,0 0,11.503 -33.131,0 0,-11.503 z m -7.361,-7.363 0,22.548 0,3.679 47.854,0 0,-26.227 -47.854,0 z"
             style="fill:#7ea3d3;fill-opacity:1;fill-rule:nonzero;stroke:none"
             id="path3104" /></g><g
           id="g3106"
           transform="translate(390.6577,63.6728)"><path
             d="m 0,0 0,106.756 c 0,2.034 1.648,3.681 3.684,3.681 2.032,0 3.679,-1.647 3.679,-3.681 L 7.363,0 C 7.363,-2.034 5.716,-3.682 3.684,-3.682 1.648,-3.682 0,-2.034 0,0"
             style="fill:#7ea3d3;fill-opacity:1;fill-rule:nonzero;stroke:none"
             id="path3108" /></g><g
           id="g3110"
           transform="translate(356.6084,77.4766)"><path
             d="m 0,0 c 0,2.034 1.645,3.682 3.681,3.682 l 15.513,0 15.473,23.211 c 1.127,1.691 3.414,2.147 5.105,1.02 1.694,-1.129 2.149,-3.414 1.022,-5.105 L 23.137,-3.679 3.681,-3.683 C 1.645,-3.683 0,-2.032 0,0"
             style="fill:#7ea3d3;fill-opacity:1;fill-rule:nonzero;stroke:none"
             id="path3112" /></g><g
           id="g3114"
           transform="translate(404.9238,74.7148)"><path
             d="m 0,0 0,27.61 c 0,2.036 1.647,3.684 3.683,3.684 2.03,0 3.678,-1.648 3.678,-3.684 L 7.361,0 C 7.361,-2.03 5.713,-3.681 3.683,-3.681 1.647,-3.681 0,-2.03 0,0"
             style="fill:#7ea3d3;fill-opacity:1;fill-rule:nonzero;stroke:none"
             id="path3116" /></g><g
           id="g3118"
           transform="translate(409.5255,153.8618)"><path
             d="m 0,0 c -2.034,0 -3.679,1.65 -3.679,3.684 0,2.032 1.645,3.679 3.679,3.679 l 54.298,0 0,20.833 c 0,2.03 1.649,3.679 3.681,3.679 2.03,0 3.682,-1.649 3.682,-3.679 L 61.661,0 0,0 z"
             style="fill:#7ea3d3;fill-opacity:1;fill-rule:nonzero;stroke:none"
             id="path3120" /></g><path
           d="m 429.77,83 34.054,0 0,50.616 -34.054,0 0,-50.616 z m -7.362,-7.361 0,62.974 17.397,21.261 0.003,0 c 1.287,1.574 3.605,1.807 5.179,0.52 1.575,-1.287 1.805,-3.609 0.52,-5.183 l -11.648,-14.232 37.328,0 0,-65.34 -48.779,0 z"
           style="fill:#7ea3d3;fill-opacity:1;fill-rule:nonzero;stroke:none"
           id="path3122" /><g
           id="g3124"
           transform="translate(426.0903,114.2891)"><path
             d="m 0,0 c -2.034,0 -3.68,1.648 -3.68,3.681 0,2.034 1.646,3.682 3.68,3.682 l 41.414,0 c 2.03,0 3.682,-1.648 3.682,-3.682 C 45.096,1.648 43.444,0 41.414,0 L 0,0 z"
             style="fill:#7ea3d3;fill-opacity:1;fill-rule:nonzero;stroke:none"
             id="path3126" /></g><g
           id="g3128"
           transform="translate(426.0903,94.9624)"><path
             d="m 0,0 c -2.034,0 -3.68,1.648 -3.68,3.684 0,2.032 1.646,3.679 3.68,3.679 l 41.414,0 c 2.03,0 3.682,-1.647 3.682,-3.679 C 45.096,1.648 43.444,0 41.414,0 L 0,0 z"
             style="fill:#7ea3d3;fill-opacity:1;fill-rule:nonzero;stroke:none"
             id="path3130" /></g><g
           id="g3132"
           transform="translate(380.9961,50.7886)"><path
             d="m 0,0 c 0,2.032 1.648,3.682 3.682,3.682 l 39.064,0 11.437,24.56 c 0.854,1.844 3.046,2.644 4.889,1.782 1.841,-0.855 2.639,-3.045 1.782,-4.892 L 47.439,-3.681 3.682,-3.683 C 1.648,-3.683 0,-2.034 0,0"
             style="fill:#7ea3d3;fill-opacity:1;fill-rule:nonzero;stroke:none"
             id="path3134" /></g><g
           id="g3136"
           transform="translate(453.2397,37.9038)"><path
             d="m 0,0 0,41.414 c 0,2.034 1.648,3.682 3.684,3.682 2.028,0 3.679,-1.648 3.679,-3.682 L 7.363,0 C 7.363,-2.03 5.712,-3.681 3.684,-3.681 1.648,-3.681 0,-2.03 0,0"
             style="fill:#7ea3d3;fill-opacity:1;fill-rule:nonzero;stroke:none"
             id="path3138" /></g><g
           id="g3140"
           transform="translate(479.9297,140.979)"><path
             d="m 0,0 c -2.034,0 -3.683,1.648 -3.683,3.684 0,2.029 1.649,3.677 3.683,3.677 l 42.795,0 c 2.031,0 3.679,-1.648 3.679,-3.677 C 46.474,1.648 44.826,0 42.795,0 L 0,0 z"
             style="fill:#7ea3d3;fill-opacity:1;fill-rule:nonzero;stroke:none"
             id="path3142" /></g><g
           id="g3144"
           transform="translate(459.6821,79.3174)"><path
             d="m 0,0 c 0,2.032 1.646,3.683 3.68,3.683 l 5.99,0 30.741,62.368 0.003,-0.003 c 0.897,1.827 3.103,2.574 4.926,1.678 1.825,-0.901 2.577,-3.108 1.678,-4.93 L 14.254,-3.679 3.68,-3.68 C 1.646,-3.68 0,-2.032 0,0"
             style="fill:#7ea3d3;fill-opacity:1;fill-rule:nonzero;stroke:none"
             id="path3146" /></g><path
           d="m 497.412,83 21.629,0 0,29.907 -21.629,0 0,-29.907 z m -7.363,-34.053 0,30.37 0,40.955 36.355,0 0,-44.633 -28.992,-0.002 0,-26.69 c 0,-2.032 -1.647,-3.682 -3.68,-3.682 -2.033,0 -3.683,1.65 -3.683,3.682"
           style="fill:#7ea3d3;fill-opacity:1;fill-rule:nonzero;stroke:none"
           id="path3148" /><g
           id="g3150"
           transform="translate(531.4644,153.8618)"><path
             d="m 0,0 c 0,2.034 1.648,3.682 3.683,3.682 l 46.016,0 0,24.514 c 0,2.032 1.647,3.679 3.681,3.679 2.029,0 3.682,-1.647 3.682,-3.679 l 0,-31.875 -53.379,0 0,-0.003 C 1.648,-3.682 0,-2.034 0,0"
             style="fill:#7ea3d3;fill-opacity:1;fill-rule:nonzero;stroke:none"
             id="path3152" /></g><g
           id="g3154"
           transform="translate(531.0049,112.9072)"><path
             d="m 0,0 c -2.032,0 -3.682,1.652 -3.682,3.683 0,2.033 1.65,3.682 3.682,3.682 l 99.395,0 c 2.032,0 3.679,-1.649 3.679,-3.682 C 103.074,1.652 101.427,0 99.395,0 L 0,0 z"
             style="fill:#7ea3d3;fill-opacity:1;fill-rule:nonzero;stroke:none"
             id="path3156" /></g><g
           id="g3158"
           transform="translate(528.7994,59.8086)"><path
             d="m 0,0 c -1.628,1.22 -1.96,3.525 -0.738,5.155 l 11.687,15.583 0,73.315 c 0,2.034 1.648,3.682 3.68,3.682 2.034,0 3.683,-1.648 3.683,-3.682 l 0,-75.769 L 5.152,0.733 C 4.427,-0.229 3.323,-0.738 2.203,-0.738 1.432,-0.737 0.659,-0.499 0,0"
             style="fill:#7ea3d3;fill-opacity:1;fill-rule:nonzero;stroke:none"
             id="path3160" /></g><g
           id="g3162"
           transform="translate(568.7383,36.9849)"><path
             d="m 0,0 0,116.877 c 0,2.034 1.644,3.682 3.681,3.682 2.035,0 3.682,-1.648 3.682,-3.682 L 7.363,0 C 7.363,-2.036 5.716,-3.681 3.681,-3.681 1.644,-3.681 0,-2.036 0,0"
             style="fill:#7ea3d3;fill-opacity:1;fill-rule:nonzero;stroke:none"
             id="path3164" /></g><g
           id="g3166"
           transform="translate(168.8662,160.3042)"><path
             d="m 0,0 c 0,-2.289 -1.854,-4.142 -4.144,-4.142 -2.285,0 -4.138,1.853 -4.138,4.142 0,2.289 1.853,4.142 4.138,4.142 C -1.854,4.142 0,2.289 0,0"
             style="fill:#7ea3d3;fill-opacity:1;fill-rule:nonzero;stroke:none"
             id="path3168" /></g><g
           id="g3170"
           transform="translate(162.4238,160.3042)"><path
             d="M 0,0 C 0.003,-1.268 1.032,-2.297 2.299,-2.3 3.57,-2.297 4.6,-1.268 4.601,0 4.6,1.27 3.57,2.301 2.299,2.302 1.032,2.301 0.003,1.27 0,0 m -3.683,0 c 0.002,3.306 2.68,5.981 5.982,5.985 C 5.606,5.981 8.282,3.306 8.282,0 8.282,-3.304 5.606,-5.979 2.299,-5.981 -1.003,-5.979 -3.681,-3.304 -3.683,0"
             style="fill:#7ea3d3;fill-opacity:1;fill-rule:nonzero;stroke:none"
             id="path3172" /></g><g
           id="g3174"
           transform="translate(55.2051,137.2983)"><path
             d="m 0,0 c 0,-2.289 -1.852,-4.142 -4.14,-4.142 -2.285,0 -4.14,1.853 -4.14,4.142 0,2.285 1.855,4.14 4.14,4.14 C -1.852,4.14 0,2.285 0,0"
             style="fill:#7ea3d3;fill-opacity:1;fill-rule:nonzero;stroke:none"
             id="path3176" /></g><g
           id="g3178"
           transform="translate(48.7646,137.2983)"><path
             d="M 0,0 C 0.003,-1.27 1.031,-2.299 2.3,-2.302 3.574,-2.299 4.599,-1.27 4.603,0 4.599,1.268 3.574,2.295 2.3,2.302 1.031,2.295 0.003,1.268 0,0 m -3.681,0 c 0.004,3.304 2.678,5.981 5.981,5.981 3.306,0 5.983,-2.677 5.983,-5.981 0,-3.307 -2.677,-5.983 -5.983,-5.983 -3.303,0 -5.977,2.676 -5.981,5.983"
             style="fill:#7ea3d3;fill-opacity:1;fill-rule:nonzero;stroke:none"
             id="path3180" /></g><g
           id="g3182"
           transform="translate(71.772,113.8301)"><path
             d="m 0,0 c 0,-2.291 -1.852,-4.14 -4.138,-4.14 -2.289,0 -4.142,1.849 -4.142,4.14 0,2.285 1.853,4.14 4.142,4.14 C -1.852,4.14 0,2.285 0,0"
             style="fill:#7ea3d3;fill-opacity:1;fill-rule:nonzero;stroke:none"
             id="path3184" /></g><g
           id="g3186"
           transform="translate(65.333,113.8301)"><path
             d="M 0,0 C 0.002,-1.27 1.029,-2.297 2.301,-2.301 3.569,-2.297 4.596,-1.27 4.598,0 4.596,1.271 3.569,2.3 2.301,2.3 1.029,2.3 0.002,1.271 0,0 m -3.681,0 c 0,3.304 2.675,5.979 5.982,5.981 C 5.603,5.979 8.278,3.304 8.28,0 8.278,-3.306 5.603,-5.981 2.301,-5.981 c -3.307,0 -5.982,2.675 -5.982,5.981"
             style="fill:#7ea3d3;fill-opacity:1;fill-rule:nonzero;stroke:none"
             id="path3188" /></g><g
           id="g3190"
           transform="translate(35.4204,70.1152)"><path
             d="m 0,0 c 0,-2.289 -1.853,-4.142 -4.142,-4.142 -2.285,0 -4.138,1.853 -4.138,4.142 0,2.287 1.853,4.142 4.138,4.142 C -1.853,4.142 0,2.287 0,0"
             style="fill:#7ea3d3;fill-opacity:1;fill-rule:nonzero;stroke:none"
             id="path3192" /></g><g
           id="g3194"
           transform="translate(28.98,70.1152)"><path
             d="M 0,0 C 0.001,-1.27 1.029,-2.299 2.3,-2.3 3.57,-2.299 4.598,-1.27 4.599,0 4.598,1.27 3.57,2.297 2.3,2.302 1.029,2.297 0.001,1.27 0,0 m -3.681,0 c 0,3.304 2.676,5.981 5.981,5.983 C 5.604,5.981 8.28,3.304 8.282,0 8.28,-3.304 5.604,-5.983 2.3,-5.983 c -3.305,0 -5.981,2.679 -5.981,5.983"
             style="fill:#7ea3d3;fill-opacity:1;fill-rule:nonzero;stroke:none"
             id="path3196" /></g><g
           id="g3198"
           transform="translate(80.5166,162.147)"><path
             d="m 0,0 c 0,-2.29 -1.853,-4.143 -4.142,-4.143 -2.287,0 -4.14,1.853 -4.14,4.143 0,2.287 1.853,4.138 4.14,4.138 C -1.853,4.138 0,2.287 0,0"
             style="fill:#7ea3d3;fill-opacity:1;fill-rule:nonzero;stroke:none"
             id="path3200" /></g><g
           id="g3202"
           transform="translate(74.0742,162.147)"><path
             d="M 0,0 C 0.002,-1.271 1.029,-2.299 2.302,-2.3 3.569,-2.299 4.6,-1.271 4.601,0 4.6,1.268 3.569,2.297 2.302,2.301 1.029,2.297 0.002,1.268 0,0 m -3.679,0 c 0,3.3 2.674,5.979 5.981,5.979 3.302,0 5.98,-2.679 5.98,-5.979 0,-3.305 -2.678,-5.983 -5.98,-5.984 -3.307,0.001 -5.981,2.679 -5.981,5.984"
             style="fill:#7ea3d3;fill-opacity:1;fill-rule:nonzero;stroke:none"
             id="path3204" /></g><g
           id="g3206"
           transform="translate(149.5425,119.811)"><path
             d="m 0,0 c 0,-2.287 -1.856,-4.142 -4.145,-4.142 -2.285,0 -4.142,1.855 -4.142,4.142 0,2.289 1.857,4.143 4.142,4.143 C -1.856,4.143 0,2.289 0,0"
             style="fill:#7ea3d3;fill-opacity:1;fill-rule:nonzero;stroke:none"
             id="path3208" /></g><g
           id="g3210"
           transform="translate(143.0952,119.811)"><path
             d="M 0,0 C 0.005,-1.27 1.032,-2.297 2.302,-2.302 3.574,-2.297 4.603,-1.27 4.603,0 4.603,1.27 3.574,2.299 2.302,2.302 1.032,2.299 0.005,1.27 0,0 M -3.681,0 C -3.677,3.305 -1.003,5.979 2.302,5.981 5.606,5.979 8.282,3.305 8.283,0 8.282,-3.306 5.606,-5.979 2.302,-5.981 -1.003,-5.979 -3.677,-3.306 -3.681,0"
             style="fill:#7ea3d3;fill-opacity:1;fill-rule:nonzero;stroke:none"
             id="path3212" /></g><g
           id="g3214"
           transform="translate(132.5146,41.5845)"><path
             d="m 0,0 c 0,-2.289 -1.855,-4.14 -4.142,-4.14 -2.288,0 -4.142,1.851 -4.142,4.14 0,2.287 1.854,4.142 4.142,4.142 C -1.855,4.142 0,2.287 0,0"
             style="fill:#7ea3d3;fill-opacity:1;fill-rule:nonzero;stroke:none"
             id="path3216" /></g><g
           id="g3218"
           transform="translate(126.0723,41.5859)"><path
             d="M 0,0 C 0.001,-1.27 1.029,-2.3 2.3,-2.302 3.572,-2.3 4.594,-1.27 4.601,0 4.594,1.27 3.572,2.297 2.3,2.303 1.029,2.297 0.001,1.27 0,0 m -3.679,0 c 0,3.304 2.674,5.981 5.979,5.981 C 5.604,5.981 8.28,3.304 8.282,0 8.28,-3.307 5.604,-5.981 2.3,-5.984 -1.005,-5.981 -3.679,-3.307 -3.679,0"
             style="fill:#7ea3d3;fill-opacity:1;fill-rule:nonzero;stroke:none"
             id="path3220" /></g><g
           id="g3222"
           transform="translate(130.6733,182.0576)"><path
             d="m 0,0 c 0,-2.291 -1.856,-4.144 -4.14,-4.144 -2.287,0 -4.144,1.853 -4.144,4.144 0,2.287 1.857,4.14 4.144,4.14 C -1.856,4.14 0,2.287 0,0"
             style="fill:#7ea3d3;fill-opacity:1;fill-rule:nonzero;stroke:none"
             id="path3224" /></g><g
           id="g3226"
           transform="translate(124.231,182.0576)"><path
             d="M 0,0 C 0.002,-1.273 1.031,-2.301 2.302,-2.303 3.571,-2.301 4.596,-1.273 4.601,0 4.596,1.266 3.571,2.295 2.302,2.299 1.031,2.295 0.002,1.266 0,0 m -3.681,0 c 0,3.304 2.678,5.981 5.983,5.981 3.301,0 5.98,-2.677 5.98,-5.981 0,-3.308 -2.679,-5.983 -5.98,-5.983 -3.305,0 -5.983,2.675 -5.983,5.983"
             style="fill:#7ea3d3;fill-opacity:1;fill-rule:nonzero;stroke:none"
             id="path3228" /></g><g
           id="g3230"
           transform="translate(164.2666,109.227)"><path
             d="m 0,0 c 0,-2.289 -1.855,-4.14 -4.145,-4.14 -2.285,0 -4.14,1.851 -4.14,4.14 0,2.289 1.855,4.143 4.14,4.143 C -1.855,4.143 0,2.289 0,0"
             style="fill:#7ea3d3;fill-opacity:1;fill-rule:nonzero;stroke:none"
             id="path3232" /></g><g
           id="g3234"
           transform="translate(157.8227,109.227)"><path
             d="M 0,0 C 0.001,-1.27 1.029,-2.299 2.299,-2.301 3.57,-2.299 4.598,-1.27 4.601,0 4.598,1.271 3.57,2.297 2.299,2.302 1.029,2.297 0.001,1.271 0,0 m -3.683,0 c 0,3.305 2.68,5.984 5.982,5.984 3.304,0 5.983,-2.679 5.983,-5.984 0,-3.304 -2.679,-5.981 -5.983,-5.981 -3.302,0 -5.982,2.677 -5.982,5.981"
             style="fill:#7ea3d3;fill-opacity:1;fill-rule:nonzero;stroke:none"
             id="path3236" /></g><g
           id="g3238"
           transform="translate(170.7056,91.2817)"><path
             d="m 0,0 c 0,-2.287 -1.853,-4.142 -4.14,-4.142 -2.289,0 -4.142,1.855 -4.142,4.142 0,2.287 1.853,4.14 4.142,4.14 C -1.853,4.14 0,2.287 0,0"
             style="fill:#7ea3d3;fill-opacity:1;fill-rule:nonzero;stroke:none"
             id="path3240" /></g><g
           id="g3242"
           transform="translate(164.2666,91.2817)"><path
             d="M 0,0 C 0,-1.27 1.029,-2.295 2.299,-2.301 3.569,-2.295 4.594,-1.27 4.6,0 4.594,1.27 3.569,2.297 2.299,2.302 1.029,2.297 0,1.27 0,0 M -3.684,0 C -3.682,3.304 -1.006,5.978 2.299,5.983 5.603,5.978 8.278,3.304 8.278,0 c 0,-3.306 -2.675,-5.981 -5.979,-5.981 -3.305,0 -5.981,2.675 -5.983,5.981"
             style="fill:#7ea3d3;fill-opacity:1;fill-rule:nonzero;stroke:none"
             id="path3244" /></g><g
           id="g3246"
           transform="translate(218.5615,160.3042)"><path
             d="m 0,0 c 0,-2.289 -1.855,-4.142 -4.138,-4.142 -2.289,0 -4.142,1.853 -4.142,4.142 0,2.289 1.853,4.142 4.142,4.142 C -1.855,4.142 0,2.289 0,0"
             style="fill:#7ea3d3;fill-opacity:1;fill-rule:nonzero;stroke:none"
             id="path3248" /></g><g
           id="g3250"
           transform="translate(212.1211,160.3076)"><path
             d="M 0,0 C 0.002,-1.273 1.031,-2.302 2.302,-2.304 3.57,-2.302 4.6,-1.273 4.601,0 4.6,1.267 3.57,2.297 2.302,2.297 1.031,2.297 0.002,1.267 0,0 m -3.682,0 c 0,3.302 2.679,5.978 5.984,5.978 C 5.606,5.978 8.28,3.302 8.282,0 8.28,-3.307 5.606,-5.981 2.302,-5.984 -1.003,-5.981 -3.682,-3.307 -3.682,0"
             style="fill:#7ea3d3;fill-opacity:1;fill-rule:nonzero;stroke:none"
             id="path3252" /></g><g
           id="g3254"
           transform="translate(234.2065,145.5801)"><path
             d="m 0,0 c 0,-2.289 -1.854,-4.142 -4.139,-4.142 -2.288,0 -4.143,1.853 -4.143,4.142 0,2.287 1.855,4.142 4.143,4.142 C -1.854,4.142 0,2.287 0,0"
             style="fill:#7ea3d3;fill-opacity:1;fill-rule:nonzero;stroke:none"
             id="path3256" /></g><g
           id="g3258"
           transform="translate(227.7676,145.5801)"><path
             d="M 0,0 C 0,-1.27 1.029,-2.299 2.297,-2.3 3.568,-2.299 4.596,-1.27 4.599,0 4.596,1.271 3.568,2.299 2.297,2.299 1.029,2.299 0,1.271 0,0 m -3.683,0 c 0,3.306 2.678,5.981 5.98,5.983 C 5.603,5.981 8.28,3.306 8.28,0 8.28,-3.304 5.603,-5.979 2.297,-5.981 -1.005,-5.979 -3.683,-3.304 -3.683,0"
             style="fill:#7ea3d3;fill-opacity:1;fill-rule:nonzero;stroke:none"
             id="path3260" /></g><g
           id="g3262"
           transform="translate(207.9795,70.1152)"><path
             d="m 0,0 c 0,-2.289 -1.855,-4.142 -4.142,-4.142 -2.287,0 -4.142,1.853 -4.142,4.142 0,2.287 1.855,4.142 4.142,4.142 C -1.855,4.142 0,2.287 0,0"
             style="fill:#7ea3d3;fill-opacity:1;fill-rule:nonzero;stroke:none"
             id="path3264" /></g><g
           id="g3266"
           transform="translate(201.5351,70.1152)"><path
             d="m 0,0 c 0.005,-1.27 1.031,-2.299 2.302,-2.3 1.272,10e-4 2.3,1.03 2.3,2.3 0,1.27 -1.028,2.297 -2.3,2.302 C 1.031,2.297 0.005,1.27 0,0 m -3.679,0 c 0,3.304 2.676,5.981 5.981,5.983 C 5.606,5.981 8.284,3.304 8.284,0 c 0,-3.304 -2.678,-5.983 -5.982,-5.983 -3.305,0 -5.981,2.679 -5.981,5.983"
             style="fill:#7ea3d3;fill-opacity:1;fill-rule:nonzero;stroke:none"
             id="path3268" /></g><g
           id="g3270"
           transform="translate(234.2065,104.1665)"><path
             d="m 0,0 c 0,-2.287 -1.854,-4.142 -4.139,-4.142 -2.288,0 -4.143,1.855 -4.143,4.142 0,2.287 1.855,4.143 4.143,4.143 C -1.854,4.143 0,2.287 0,0"
             style="fill:#7ea3d3;fill-opacity:1;fill-rule:nonzero;stroke:none"
             id="path3272" /></g><g
           id="g3274"
           transform="translate(227.7642,104.1665)"><path
             d="M 0,0 C 0.003,-1.27 1.032,-2.299 2.3,-2.301 3.57,-2.299 4.601,-1.27 4.601,0 4.601,1.27 3.57,2.297 2.3,2.304 1.032,2.297 0.003,1.27 0,0 m -3.679,0 c 0,3.304 2.678,5.979 5.979,5.981 C 5.606,5.979 8.283,3.304 8.283,0 c 0,-3.306 -2.677,-5.981 -5.983,-5.981 -3.301,0 -5.979,2.675 -5.979,5.981"
             style="fill:#7ea3d3;fill-opacity:1;fill-rule:nonzero;stroke:none"
             id="path3276" /></g><g
           id="g3278"
           transform="translate(182.6714,70.1152)"><path
             d="m 0,0 c 0,-2.289 -1.857,-4.142 -4.142,-4.142 -2.287,0 -4.143,1.853 -4.143,4.142 0,2.287 1.856,4.142 4.143,4.142 C -1.857,4.142 0,2.287 0,0"
             style="fill:#7ea3d3;fill-opacity:1;fill-rule:nonzero;stroke:none"
             id="path3280" /></g><g
           id="g3282"
           transform="translate(176.229,70.1152)"><path
             d="M 0,0 C 0.001,-1.27 1.032,-2.299 2.299,-2.3 3.57,-2.299 4.6,-1.27 4.603,0 4.6,1.27 3.57,2.297 2.299,2.302 1.032,2.297 0.001,1.27 0,0 m -3.684,0 c 0,3.304 2.679,5.981 5.983,5.983 C 5.604,5.981 8.278,3.304 8.28,0 8.278,-3.304 5.604,-5.983 2.299,-5.983 c -3.304,0 -5.983,2.679 -5.983,5.983"
             style="fill:#7ea3d3;fill-opacity:1;fill-rule:nonzero;stroke:none"
             id="path3284" /></g><g
           id="g3286"
           transform="translate(265.4971,43.4258)"><path
             d="m 0,0 c 0,-2.287 -1.853,-4.142 -4.14,-4.142 -2.287,0 -4.142,1.855 -4.142,4.142 0,2.288 1.855,4.142 4.142,4.142 C -1.853,4.142 0,2.288 0,0"
             style="fill:#7ea3d3;fill-opacity:1;fill-rule:nonzero;stroke:none"
             id="path3288" /></g><g
           id="g3290"
           transform="translate(259.0552,43.4258)"><path
             d="M 0,0 C 0.001,-1.269 1.03,-2.297 2.302,-2.301 3.572,-2.297 4.599,-1.269 4.603,0 4.599,1.271 3.572,2.3 2.302,2.302 1.03,2.3 0.001,1.271 0,0 m -3.681,0 c 0,3.305 2.676,5.981 5.983,5.981 3.305,0 5.981,-2.676 5.981,-5.981 0,-3.304 -2.676,-5.979 -5.981,-5.981 -3.307,0.002 -5.983,2.677 -5.983,5.981"
             style="fill:#7ea3d3;fill-opacity:1;fill-rule:nonzero;stroke:none"
             id="path3292" /></g><g
           id="g3294"
           transform="translate(254.915,170.4287)"><path
             d="m 0,0 c 0,-2.288 -1.855,-4.144 -4.142,-4.144 -2.287,0 -4.142,1.856 -4.142,4.144 0,2.285 1.855,4.142 4.142,4.142 C -1.855,4.142 0,2.285 0,0"
             style="fill:#7ea3d3;fill-opacity:1;fill-rule:nonzero;stroke:none"
             id="path3296" /></g><g
           id="g3298"
           transform="translate(248.4746,170.4287)"><path
             d="M 0,0 C 0.001,-1.271 1.029,-2.297 2.297,-2.3 3.568,-2.297 4.596,-1.271 4.598,0 4.596,1.27 3.568,2.299 2.297,2.301 1.029,2.299 0.001,1.27 0,0 m -3.683,0 c 0,3.304 2.676,5.983 5.98,5.983 C 5.604,5.983 8.28,3.304 8.28,0 8.28,-3.305 5.604,-5.981 2.297,-5.983 -1.007,-5.981 -3.683,-3.305 -3.683,0"
             style="fill:#7ea3d3;fill-opacity:1;fill-rule:nonzero;stroke:none"
             id="path3300" /></g><g
           id="g3302"
           transform="translate(288.0454,171.3496)"><path
             d="m 0,0 c 0,-2.287 -1.855,-4.14 -4.142,-4.14 -2.287,0 -4.14,1.853 -4.14,4.14 0,2.285 1.853,4.142 4.14,4.142 C -1.855,4.142 0,2.285 0,0"
             style="fill:#7ea3d3;fill-opacity:1;fill-rule:nonzero;stroke:none"
             id="path3304" /></g><g
           id="g3306"
           transform="translate(281.603,171.3496)"><path
             d="M 0,0 C 0,-1.271 1.029,-2.299 2.301,-2.301 3.57,-2.299 4.6,-1.271 4.601,0 4.6,1.271 3.57,2.299 2.301,2.299 1.029,2.299 0,1.271 0,0 m -3.679,0 c 0,3.304 2.676,5.981 5.98,5.981 3.305,0 5.983,-2.677 5.983,-5.981 0,-3.306 -2.678,-5.981 -5.983,-5.981 -3.304,0 -5.98,2.675 -5.98,5.981"
             style="fill:#7ea3d3;fill-opacity:1;fill-rule:nonzero;stroke:none"
             id="path3308" /></g><g
           id="g3310"
           transform="translate(263.1968,104.1665)"><path
             d="m 0,0 c 0,-2.287 -1.853,-4.142 -4.142,-4.142 -2.288,0 -4.14,1.855 -4.14,4.142 0,2.287 1.852,4.143 4.14,4.143 C -1.853,4.143 0,2.287 0,0"
             style="fill:#7ea3d3;fill-opacity:1;fill-rule:nonzero;stroke:none"
             id="path3312" /></g><g
           id="g3314"
           transform="translate(256.7545,104.1665)"><path
             d="M 0,0 C 0,-1.27 1.031,-2.299 2.301,-2.301 3.57,-2.299 4.6,-1.27 4.603,0 4.6,1.27 3.57,2.299 2.301,2.304 1.031,2.299 0,1.27 0,0 m -3.682,0 c 0,3.304 2.679,5.979 5.983,5.981 C 5.604,5.979 8.282,3.304 8.284,0 8.282,-3.306 5.604,-5.981 2.301,-5.981 c -3.304,0 -5.983,2.675 -5.983,5.981"
             style="fill:#7ea3d3;fill-opacity:1;fill-rule:nonzero;stroke:none"
             id="path3316" /></g><g
           id="g3318"
           transform="translate(304.1528,157.5439)"><path
             d="m 0,0 c 0,-2.287 -1.855,-4.142 -4.145,-4.142 -2.285,0 -4.138,1.855 -4.138,4.142 0,2.287 1.853,4.142 4.138,4.142 C -1.855,4.142 0,2.287 0,0"
             style="fill:#7ea3d3;fill-opacity:1;fill-rule:nonzero;stroke:none"
             id="path3320" /></g><g
           id="g3322"
           transform="translate(297.707,157.5439)"><path
             d="M 0,0 C 0.003,-1.271 1.033,-2.295 2.301,-2.302 3.572,-2.295 4.601,-1.271 4.604,0 4.601,1.27 3.572,2.299 2.301,2.303 1.033,2.299 0.003,1.27 0,0 m -3.679,0 c 0,3.304 2.673,5.979 5.98,5.981 C 5.606,5.979 8.284,3.304 8.285,0 8.284,-3.304 5.606,-5.981 2.301,-5.981 c -3.307,0 -5.98,2.677 -5.98,5.981"
             style="fill:#7ea3d3;fill-opacity:1;fill-rule:nonzero;stroke:none"
             id="path3324" /></g><g
           id="g3326"
           transform="translate(357.0693,157.5439)"><path
             d="m 0,0 c 0,-2.287 -1.854,-4.142 -4.143,-4.142 -2.287,0 -4.14,1.855 -4.14,4.142 0,2.287 1.853,4.142 4.14,4.142 C -1.854,4.142 0,2.287 0,0"
             style="fill:#7ea3d3;fill-opacity:1;fill-rule:nonzero;stroke:none"
             id="path3328" /></g><g
           id="g3330"
           transform="translate(350.6255,157.5439)"><path
             d="M 0,0 C 0.002,-1.268 1.033,-2.3 2.297,-2.302 3.571,-2.3 4.6,-1.271 4.603,0 4.6,1.27 3.571,2.299 2.297,2.303 1.033,2.299 0.002,1.27 0,0 M -3.682,0 C -3.68,3.304 -1.003,5.979 2.297,5.981 5.604,5.979 8.282,3.304 8.282,0 c 0,-3.304 -2.678,-5.981 -5.985,-5.981 -3.3,0 -5.977,2.677 -5.979,5.981"
             style="fill:#7ea3d3;fill-opacity:1;fill-rule:nonzero;stroke:none"
             id="path3332" /></g><g
           id="g3334"
           transform="translate(300.0078,137.2983)"><path
             d="m 0,0 c 0,-2.289 -1.852,-4.142 -4.138,-4.142 -2.289,0 -4.142,1.853 -4.142,4.142 0,2.285 1.853,4.14 4.142,4.14 C -1.852,4.14 0,2.285 0,0"
             style="fill:#7ea3d3;fill-opacity:1;fill-rule:nonzero;stroke:none"
             id="path3336" /></g><g
           id="g3338"
           transform="translate(293.5669,137.2949)"><path
             d="M 0,0 C 0.002,-1.267 1.029,-2.295 2.303,-2.299 3.572,-2.295 4.6,-1.267 4.602,0 4.6,1.273 3.572,2.299 2.303,2.304 1.029,2.299 0.002,1.273 0,0 m -3.68,0 c 0,3.307 2.677,5.981 5.983,5.985 C 5.604,5.981 8.28,3.307 8.284,0 8.28,-3.304 5.604,-5.978 2.303,-5.979 -1.003,-5.978 -3.68,-3.304 -3.68,0"
             style="fill:#7ea3d3;fill-opacity:1;fill-rule:nonzero;stroke:none"
             id="path3340" /></g><g
           id="g3342"
           transform="translate(419.1885,137.2983)"><path
             d="m 0,0 c 0,-2.289 -1.854,-4.142 -4.142,-4.142 -2.285,0 -4.139,1.853 -4.139,4.142 0,2.285 1.854,4.14 4.139,4.14 C -1.854,4.14 0,2.285 0,0"
             style="fill:#7ea3d3;fill-opacity:1;fill-rule:nonzero;stroke:none"
             id="path3344" /></g><g
           id="g3346"
           transform="translate(412.7461,137.2983)"><path
             d="M 0,0 C 0,-1.27 1.029,-2.299 2.299,-2.302 3.571,-2.299 4.598,-1.27 4.602,0 4.598,1.27 3.571,2.295 2.299,2.302 1.029,2.295 0,1.27 0,0 m -3.679,0 c 0,3.306 2.674,5.978 5.978,5.981 C 5.608,5.978 8.284,3.302 8.284,0 8.284,-3.305 5.608,-5.981 2.299,-5.983 -1.005,-5.981 -3.679,-3.307 -3.679,0"
             style="fill:#7ea3d3;fill-opacity:1;fill-rule:nonzero;stroke:none"
             id="path3348" /></g><g
           id="g3350"
           transform="translate(304.1528,120.272)"><path
             d="m 0,0 c 0,-2.287 -1.855,-4.142 -4.145,-4.142 -2.285,0 -4.138,1.855 -4.138,4.142 0,2.287 1.853,4.14 4.138,4.14 C -1.855,4.14 0,2.287 0,0"
             style="fill:#7ea3d3;fill-opacity:1;fill-rule:nonzero;stroke:none"
             id="path3352" /></g><g
           id="g3354"
           transform="translate(297.707,120.272)"><path
             d="M 0,0 C 0.003,-1.268 1.033,-2.299 2.301,-2.302 3.572,-2.299 4.601,-1.268 4.604,0 4.601,1.268 3.572,2.299 2.301,2.301 1.033,2.299 0.003,1.268 0,0 m -3.679,0 c 0,3.306 2.673,5.978 5.98,5.983 C 5.606,5.978 8.284,3.306 8.285,0 8.284,-3.304 5.606,-5.978 2.301,-5.981 -1.006,-5.978 -3.679,-3.304 -3.679,0"
             style="fill:#7ea3d3;fill-opacity:1;fill-rule:nonzero;stroke:none"
             id="path3356" /></g><g
           id="g3358"
           transform="translate(304.1528,103.2456)"><path
             d="m 0,0 c 0,-2.289 -1.855,-4.143 -4.145,-4.143 -2.285,0 -4.138,1.854 -4.138,4.143 0,2.287 1.853,4.144 4.138,4.144 C -1.855,4.144 0,2.287 0,0"
             style="fill:#7ea3d3;fill-opacity:1;fill-rule:nonzero;stroke:none"
             id="path3360" /></g><g
           id="g3362"
           transform="translate(297.707,103.2456)"><path
             d="M 0,0 C 0.003,-1.27 1.033,-2.297 2.301,-2.299 3.572,-2.297 4.601,-1.27 4.604,0 4.601,1.272 3.572,2.299 2.301,2.302 1.033,2.299 0.003,1.272 0,0 m -3.679,0 c 0,3.304 2.673,5.979 5.98,5.981 C 5.606,5.979 8.284,3.304 8.285,0 8.284,-3.304 5.606,-5.981 2.301,-5.981 c -3.307,0 -5.98,2.677 -5.98,5.981"
             style="fill:#7ea3d3;fill-opacity:1;fill-rule:nonzero;stroke:none"
             id="path3364" /></g><g
           id="g3366"
           transform="translate(356.1475,37.9038)"><path
             d="m 0,0 c 0,-2.289 -1.852,-4.142 -4.14,-4.142 -2.291,0 -4.14,1.853 -4.14,4.142 0,2.287 1.849,4.14 4.14,4.14 C -1.852,4.14 0,2.287 0,0"
             style="fill:#7ea3d3;fill-opacity:1;fill-rule:nonzero;stroke:none"
             id="path3368" /></g><g
           id="g3370"
           transform="translate(349.7051,37.9038)"><path
             d="M 0,0 C 0,-1.27 1.032,-2.297 2.301,-2.299 3.57,-2.297 4.601,-1.27 4.603,0 4.601,1.271 3.57,2.299 2.301,2.3 1.032,2.299 0,1.268 0,0 M -3.683,0 C -3.681,3.305 -1.005,5.979 2.301,5.985 5.606,5.979 8.282,3.305 8.282,0 c 0,-3.304 -2.676,-5.981 -5.981,-5.981 -3.304,0 -5.982,2.677 -5.984,5.981"
             style="fill:#7ea3d3;fill-opacity:1;fill-rule:nonzero;stroke:none"
             id="path3372" /></g><g
           id="g3374"
           transform="translate(356.1475,120.272)"><path
             d="m 0,0 c 0,-2.287 -1.852,-4.142 -4.14,-4.142 -2.291,0 -4.14,1.855 -4.14,4.142 0,2.287 1.849,4.14 4.14,4.14 C -1.852,4.14 0,2.287 0,0"
             style="fill:#7ea3d3;fill-opacity:1;fill-rule:nonzero;stroke:none"
             id="path3376" /></g><g
           id="g3378"
           transform="translate(349.7051,120.272)"><path
             d="M 0,0 C 0,-1.27 1.032,-2.299 2.301,-2.302 3.57,-2.299 4.601,-1.27 4.603,0 4.601,1.27 3.57,2.299 2.301,2.301 1.032,2.299 0,1.268 0,0 M -3.683,0 C -3.681,3.306 -1.005,5.979 2.301,5.983 5.606,5.979 8.282,3.306 8.282,0 8.282,-3.302 5.606,-5.979 2.301,-5.983 -1.005,-5.979 -3.681,-3.305 -3.683,0"
             style="fill:#7ea3d3;fill-opacity:1;fill-rule:nonzero;stroke:none"
             id="path3380" /></g><g
           id="g3382"
           transform="translate(356.1475,103.2456)"><path
             d="m 0,0 c 0,-2.289 -1.852,-4.143 -4.14,-4.143 -2.291,0 -4.14,1.854 -4.14,4.143 0,2.287 1.849,4.144 4.14,4.144 C -1.852,4.144 0,2.287 0,0"
             style="fill:#7ea3d3;fill-opacity:1;fill-rule:nonzero;stroke:none"
             id="path3384" /></g><g
           id="g3386"
           transform="translate(349.7051,103.2456)"><path
             d="M 0,0 C 0,-1.27 1.032,-2.297 2.301,-2.299 3.57,-2.297 4.601,-1.27 4.603,0 4.601,1.272 3.57,2.299 2.301,2.302 1.032,2.299 0,1.272 0,0 M -3.683,0 C -3.681,3.306 -1.005,5.979 2.301,5.981 5.606,5.979 8.282,3.306 8.282,0 8.282,-3.304 5.606,-5.981 2.301,-5.983 -1.005,-5.981 -3.681,-3.304 -3.683,0"
             style="fill:#7ea3d3;fill-opacity:1;fill-rule:nonzero;stroke:none"
             id="path3388" /></g><g
           id="g3390"
           transform="translate(364.4292,77.4766)"><path
             d="m 0,0 c 0,-2.287 -1.852,-4.14 -4.14,-4.14 -2.285,0 -4.142,1.853 -4.142,4.14 0,2.289 1.857,4.142 4.142,4.142 C -1.852,4.142 0,2.289 0,0"
             style="fill:#7ea3d3;fill-opacity:1;fill-rule:nonzero;stroke:none"
             id="path3392" /></g><g
           id="g3394"
           transform="translate(357.9868,77.4785)"><path
             d="M 0,0 C 0.003,-1.272 1.034,-2.299 2.302,-2.301 3.572,-2.299 4.601,-1.272 4.601,0 4.601,1.271 3.572,2.297 2.302,2.299 1.034,2.297 0.003,1.268 0,0 m -3.679,0 c 0,3.304 2.676,5.979 5.981,5.982 3.306,0 5.982,-2.678 5.982,-5.982 0,-3.306 -2.676,-5.981 -5.982,-5.981 -3.305,0 -5.981,2.675 -5.981,5.981"
             style="fill:#7ea3d3;fill-opacity:1;fill-rule:nonzero;stroke:none"
             id="path3396" /></g><g
           id="g3398"
           transform="translate(398.4834,63.6728)"><path
             d="m 0,0 c 0,-2.287 -1.855,-4.142 -4.144,-4.142 -2.285,0 -4.141,1.855 -4.141,4.142 0,2.287 1.856,4.142 4.141,4.142 C -1.855,4.142 0,2.287 0,0"
             style="fill:#7ea3d3;fill-opacity:1;fill-rule:nonzero;stroke:none"
             id="path3400" /></g><g
           id="g3402"
           transform="translate(392.0376,63.6728)"><path
             d="M 0,0 C 0.003,-1.27 1.031,-2.297 2.302,-2.302 3.574,-2.297 4.6,-1.271 4.606,0 4.6,1.271 3.574,2.297 2.302,2.301 1.031,2.297 0.003,1.271 0,0 m -3.68,0 c 0,3.306 2.679,5.979 5.982,5.983 C 5.608,5.979 8.284,3.304 8.284,0 8.284,-3.305 5.608,-5.979 2.302,-5.982 -1.001,-5.979 -3.68,-3.305 -3.68,0"
             style="fill:#7ea3d3;fill-opacity:1;fill-rule:nonzero;stroke:none"
             id="path3404" /></g><g
           id="g3406"
           transform="translate(388.8185,50.7886)"><path
             d="m 0,0 c 0,-2.287 -1.854,-4.142 -4.14,-4.142 -2.289,0 -4.142,1.855 -4.142,4.142 0,2.287 1.853,4.142 4.142,4.142 C -1.854,4.142 0,2.287 0,0"
             style="fill:#7ea3d3;fill-opacity:1;fill-rule:nonzero;stroke:none"
             id="path3408" /></g><g
           id="g3410"
           transform="translate(382.376,50.7886)"><path
             d="M 0,0 C 0.002,-1.27 1.032,-2.299 2.302,-2.301 3.57,-2.299 4.6,-1.272 4.601,0 4.6,1.271 3.57,2.297 2.302,2.3 1.032,2.297 0.002,1.266 0,0 m -3.679,0 c 0,3.305 2.676,5.981 5.981,5.981 3.306,0 5.98,-2.677 5.98,-5.981 0,-3.306 -2.674,-5.981 -5.98,-5.981 -3.305,0.002 -5.981,2.675 -5.981,5.981"
             style="fill:#7ea3d3;fill-opacity:1;fill-rule:nonzero;stroke:none"
             id="path3412" /></g><g
           id="g3414"
           transform="translate(461.0635,37.9038)"><path
             d="m 0,0 c 0,-2.289 -1.854,-4.142 -4.142,-4.142 -2.286,0 -4.143,1.853 -4.143,4.142 0,2.287 1.857,4.14 4.143,4.14 C -1.854,4.14 0,2.287 0,0"
             style="fill:#7ea3d3;fill-opacity:1;fill-rule:nonzero;stroke:none"
             id="path3416" /></g><g
           id="g3418"
           transform="translate(454.6216,37.9038)"><path
             d="M 0,0 C 0,-1.27 1.029,-2.297 2.3,-2.299 3.57,-2.297 4.598,-1.27 4.603,0 4.598,1.27 3.57,2.299 2.3,2.3 1.031,2.299 0,1.27 0,0 m -3.683,0 c 0,3.307 2.678,5.983 5.983,5.983 C 5.603,5.983 8.282,3.307 8.282,0 8.282,-3.304 5.603,-5.979 2.3,-5.981 -1.001,-5.979 -3.683,-3.304 -3.683,0"
             style="fill:#7ea3d3;fill-opacity:1;fill-rule:nonzero;stroke:none"
             id="path3420" /></g><g
           id="g3422"
           transform="translate(398.4834,170.4287)"><path
             d="m 0,0 c 0,-2.288 -1.855,-4.144 -4.144,-4.144 -2.285,0 -4.141,1.856 -4.141,4.144 0,2.285 1.856,4.142 4.141,4.142 C -1.855,4.142 0,2.285 0,0"
             style="fill:#7ea3d3;fill-opacity:1;fill-rule:nonzero;stroke:none"
             id="path3424" /></g><g
           id="g3426"
           transform="translate(392.0376,170.4287)"><path
             d="M 0,0 C 0.003,-1.27 1.031,-2.297 2.302,-2.3 3.574,-2.297 4.6,-1.271 4.606,0 4.6,1.27 3.574,2.299 2.302,2.299 1.031,2.299 0.003,1.27 0,0 m -3.68,0 c 0,3.306 2.679,5.981 5.982,5.981 3.306,0 5.982,-2.679 5.982,-5.981 0,-3.305 -2.676,-5.981 -5.982,-5.981 -3.303,0 -5.982,2.676 -5.982,5.981"
             style="fill:#7ea3d3;fill-opacity:1;fill-rule:nonzero;stroke:none"
             id="path3428" /></g><g
           id="g3430"
           transform="translate(413.665,157.5439)"><path
             d="m 0,0 c 0,-2.287 -1.854,-4.142 -4.14,-4.142 -2.285,0 -4.138,1.855 -4.138,4.142 0,2.287 1.853,4.142 4.138,4.142 C -1.854,4.142 0,2.287 0,0"
             style="fill:#7ea3d3;fill-opacity:1;fill-rule:nonzero;stroke:none"
             id="path3432" /></g><g
           id="g3434"
           transform="translate(407.2246,157.5459)"><path
             d="M 0,0 C 0,-1.271 1.032,-2.297 2.301,-2.304 3.572,-2.297 4.596,-1.273 4.601,0 4.596,1.268 3.572,2.297 2.301,2.299 1.032,2.297 0,1.268 0,0 m -3.682,0 c 0,3.306 2.677,5.978 5.983,5.981 C 5.604,5.978 8.278,3.302 8.278,0 8.278,-3.306 5.604,-5.983 2.301,-5.983 -1.005,-5.981 -3.682,-3.306 -3.682,0"
             style="fill:#7ea3d3;fill-opacity:1;fill-rule:nonzero;stroke:none"
             id="path3436" /></g><g
           id="g3438"
           transform="translate(471.6475,182.0576)"><path
             d="m 0,0 c 0,-2.291 -1.854,-4.144 -4.143,-4.144 -2.287,0 -4.142,1.853 -4.142,4.144 0,2.287 1.855,4.14 4.142,4.14 C -1.854,4.14 0,2.287 0,0"
             style="fill:#7ea3d3;fill-opacity:1;fill-rule:nonzero;stroke:none"
             id="path3440" /></g><g
           id="g3442"
           transform="translate(465.2036,182.0576)"><path
             d="M 0,0 C 0.002,-1.27 1.033,-2.301 2.301,-2.303 3.572,-2.301 4.598,-1.27 4.605,0 4.598,1.27 3.572,2.295 2.301,2.299 1.033,2.295 0.002,1.266 0,0 m -3.682,0 c 0,3.304 2.679,5.981 5.983,5.981 3.303,0 5.983,-2.677 5.983,-5.981 0,-3.304 -2.68,-5.983 -5.983,-5.983 -3.304,0 -5.983,2.675 -5.983,5.983"
             style="fill:#7ea3d3;fill-opacity:1;fill-rule:nonzero;stroke:none"
             id="path3444" /></g><g
           id="g3446"
           transform="translate(484.0693,144.6611)"><path
             d="m 0,0 c 0,-2.29 -1.853,-4.145 -4.14,-4.145 -2.287,0 -4.142,1.855 -4.142,4.145 0,2.287 1.855,4.139 4.142,4.139 C -1.853,4.139 0,2.287 0,0"
             style="fill:#7ea3d3;fill-opacity:1;fill-rule:nonzero;stroke:none"
             id="path3448" /></g><g
           id="g3450"
           transform="translate(477.6269,144.6631)"><path
             d="M 0,0 C 0.004,-1.271 1.033,-2.301 2.303,-2.306 3.572,-2.301 4.6,-1.275 4.602,0 4.6,1.268 3.572,2.294 2.303,2.299 1.033,2.294 0.004,1.268 0,0 m -3.679,0 c 0,3.304 2.674,5.978 5.982,5.979 3.303,0 5.979,-2.68 5.979,-5.979 0,-3.306 -2.676,-5.983 -5.979,-5.984 -3.308,0.001 -5.982,2.678 -5.982,5.984"
             style="fill:#7ea3d3;fill-opacity:1;fill-rule:nonzero;stroke:none"
             id="path3452" /></g><g
           id="g3454"
           transform="translate(535.1471,62.7524)"><path
             d="m 0,0 c 0,-2.287 -1.855,-4.142 -4.14,-4.142 -2.285,0 -4.142,1.855 -4.142,4.142 0,2.287 1.857,4.142 4.142,4.142 C -1.855,4.142 0,2.287 0,0"
             style="fill:#7ea3d3;fill-opacity:1;fill-rule:nonzero;stroke:none"
             id="path3456" /></g><g
           id="g3458"
           transform="translate(528.7047,62.7539)"><path
             d="M 0,0 C 0.003,-1.273 1.032,-2.297 2.302,-2.3 3.572,-2.297 4.599,-1.273 4.603,0 4.599,1.27 3.572,2.296 2.302,2.299 1.032,2.296 0.003,1.27 0,0 m -3.681,0 c 0,3.306 2.678,5.978 5.983,5.979 3.306,0 5.98,-2.677 5.98,-5.979 0,-3.305 -2.674,-5.982 -5.98,-5.982 -3.305,0.001 -5.983,2.675 -5.983,5.982"
             style="fill:#7ea3d3;fill-opacity:1;fill-rule:nonzero;stroke:none"
             id="path3460" /></g><g
           id="g3462"
           transform="translate(576.5626,36.9849)"><path
             d="m 0,0 c 0,-2.289 -1.856,-4.143 -4.144,-4.143 -2.285,0 -4.14,1.854 -4.14,4.143 0,2.287 1.855,4.14 4.14,4.14 C -1.856,4.14 0,2.287 0,0"
             style="fill:#7ea3d3;fill-opacity:1;fill-rule:nonzero;stroke:none"
             id="path3464" /></g><g
           id="g3466"
           transform="translate(570.1168,36.9834)"><path
             d="M 0,0 C 0.003,-1.27 1.036,-2.299 2.302,-2.301 3.572,-2.299 4.604,-1.271 4.604,0 4.604,1.271 3.572,2.3 2.302,2.302 1.036,2.3 0.003,1.27 0,0 M -3.682,0 C -3.679,3.305 -0.998,5.979 2.302,5.982 5.606,5.982 8.285,3.305 8.287,0 L 8.285,0 c 0,-3.302 -2.679,-5.979 -5.983,-5.979 -3.3,0 -5.981,2.675 -5.984,5.979"
             style="fill:#7ea3d3;fill-opacity:1;fill-rule:nonzero;stroke:none"
             id="path3468" /></g><g
           id="g3470"
           transform="translate(526.8653,144.6611)"><path
             d="m 0,0 c 0,-2.29 -1.854,-4.145 -4.14,-4.145 -2.289,0 -4.144,1.855 -4.144,4.145 0,2.287 1.855,4.139 4.144,4.139 C -1.854,4.139 0,2.287 0,0"
             style="fill:#7ea3d3;fill-opacity:1;fill-rule:nonzero;stroke:none"
             id="path3472" /></g><g
           id="g3474"
           transform="translate(520.4194,144.6631)"><path
             d="M 0,0 C 0.005,-1.275 1.032,-2.301 2.306,-2.304 3.574,-2.301 4.601,-1.275 4.604,0 4.601,1.268 3.574,2.297 2.306,2.299 1.032,2.297 0.005,1.265 0,0 m -3.679,0 c 0.002,3.304 2.678,5.978 5.985,5.979 3.3,0 5.979,-2.679 5.979,-5.979 0,-3.306 -2.679,-5.983 -5.979,-5.984 -3.307,0.001 -5.983,2.675 -5.985,5.984"
             style="fill:#7ea3d3;fill-opacity:1;fill-rule:nonzero;stroke:none"
             id="path3476" /></g><g
           id="g3478"
           transform="translate(539.2887,153.8618)"><path
             d="m 0,0 c 0,-2.287 -1.853,-4.14 -4.142,-4.14 -2.285,0 -4.14,1.853 -4.14,4.14 0,2.287 1.855,4.142 4.14,4.142 C -1.853,4.142 0,2.287 0,0"
             style="fill:#7ea3d3;fill-opacity:1;fill-rule:nonzero;stroke:none"
             id="path3480" /></g><g
           id="g3482"
           transform="translate(532.8448,153.8618)"><path
             d="M 0,0 C 0.003,-1.27 1.034,-2.297 2.302,-2.299 3.574,-2.297 4.598,-1.271 4.604,0 4.598,1.272 3.574,2.297 2.302,2.301 1.034,2.297 0.003,1.27 0,0 m -3.681,0 c 0,3.306 2.678,5.983 5.983,5.983 3.304,0 5.981,-2.677 5.981,-5.983 0,-3.302 -2.677,-5.979 -5.981,-5.979 -3.305,0 -5.983,2.677 -5.983,5.979"
             style="fill:#7ea3d3;fill-opacity:1;fill-rule:nonzero;stroke:none"
             id="path3484" /></g><g
           id="g3486"
           transform="translate(535.1471,116.5898)"><path
             d="m 0,0 c 0,-2.285 -1.855,-4.14 -4.14,-4.14 -2.285,0 -4.142,1.855 -4.142,4.14 0,2.289 1.857,4.142 4.142,4.142 C -1.855,4.142 0,2.289 0,0"
             style="fill:#7ea3d3;fill-opacity:1;fill-rule:nonzero;stroke:none"
             id="path3488" /></g><g
           id="g3490"
           transform="translate(528.7047,116.5898)"><path
             d="M 0,0 C 0.003,-1.271 1.032,-2.295 2.302,-2.301 3.572,-2.295 4.599,-1.271 4.603,0 4.599,1.271 3.572,2.297 2.302,2.302 1.032,2.297 0.003,1.271 0,0 m -3.681,0 c 0,3.306 2.678,5.981 5.983,5.981 3.306,0 5.98,-2.677 5.98,-5.981 0,-3.302 -2.674,-5.981 -5.98,-5.981 -3.305,0.002 -5.983,2.675 -5.983,5.981"
             style="fill:#7ea3d3;fill-opacity:1;fill-rule:nonzero;stroke:none"
             id="path3492" /></g><g
           id="g3494"
           transform="translate(634.5416,116.5898)"><path
             d="m 0,0 c 0,-2.285 -1.853,-4.14 -4.142,-4.14 -2.287,0 -4.142,1.855 -4.142,4.14 0,2.289 1.855,4.142 4.142,4.142 C -1.853,4.142 0,2.289 0,0"
             style="fill:#7ea3d3;fill-opacity:1;fill-rule:nonzero;stroke:none"
             id="path3496" /></g><g
           id="g3498"
           transform="translate(628.0977,116.5918)"><path
             d="M 0,0 C 0.001,-1.273 1.03,-2.297 2.302,-2.301 3.574,-2.297 4.596,-1.273 4.604,0 4.596,1.271 3.574,2.295 2.302,2.3 1.03,2.295 0.001,1.268 0,0 m -3.679,0 c 0,3.304 2.674,5.979 5.981,5.981 C 5.606,5.979 8.281,3.304 8.281,0 c 0,-3.306 -2.675,-5.983 -5.979,-5.983 -3.307,0 -5.981,2.675 -5.981,5.983"
             style="fill:#7ea3d3;fill-opacity:1;fill-rule:nonzero;stroke:none"
             id="path3500" /></g><g
           id="g3502"
           transform="translate(588.9845,182.0591)"><path
             d="m 0,0 c 0,-2.291 -1.854,-4.145 -4.14,-4.145 -2.287,0 -4.142,1.854 -4.142,4.145 0,2.285 1.855,4.138 4.142,4.138 C -1.854,4.138 0,2.285 0,0"
             style="fill:#7ea3d3;fill-opacity:1;fill-rule:nonzero;stroke:none"
             id="path3504" /></g><g
           id="g3506"
           transform="translate(582.54,182.0591)"><path
             d="M 0,0 C 0.005,-1.27 1.034,-2.299 2.304,-2.304 3.576,-2.299 4.6,-1.271 4.604,0 4.6,1.267 3.576,2.297 2.304,2.3 1.034,2.297 0.005,1.267 0,0 m -3.681,0 c 0.004,3.302 2.68,5.979 5.985,5.981 C 5.608,5.979 8.284,3.302 8.284,0 c 0,-3.305 -2.676,-5.981 -5.98,-5.985 -3.305,0.004 -5.981,2.68 -5.985,5.985"
             style="fill:#7ea3d3;fill-opacity:1;fill-rule:nonzero;stroke:none"
             id="path3508" /></g><g
           id="g3510"
           transform="translate(497.875,48.9473)"><path
             d="m 0,0 c 0,-2.285 -1.855,-4.14 -4.14,-4.14 -2.287,0 -4.142,1.855 -4.142,4.14 0,2.289 1.855,4.142 4.142,4.142 C -1.855,4.142 0,2.289 0,0"
             style="fill:#7ea3d3;fill-opacity:1;fill-rule:nonzero;stroke:none"
             id="path3512" /></g><g
           id="g3514"
           transform="translate(491.4307,48.9473)"><path
             d="M 0,0 C 0.005,-1.27 1.034,-2.295 2.301,-2.297 3.574,-2.295 4.6,-1.27 4.601,0 4.6,1.273 3.574,2.299 2.301,2.301 1.034,2.299 0.005,1.268 0,0 m -3.679,0 c 0,3.306 2.678,5.979 5.98,5.983 3.305,0 5.984,-2.677 5.984,-5.983 0,-3.304 -2.679,-5.978 -5.984,-5.981 -3.302,0.003 -5.98,2.677 -5.98,5.981"
             style="fill:#7ea3d3;fill-opacity:1;fill-rule:nonzero;stroke:none"
             id="path3516" /></g><g
           id="g3518"
           transform="translate(412.7461,74.7183)"><path
             d="m 0,0 c 0,-2.291 -1.853,-4.144 -4.14,-4.144 -2.287,0 -4.141,1.853 -4.141,4.144 0,2.285 1.854,4.138 4.141,4.138 C -1.853,4.138 0,2.285 0,0"
             style="fill:#7ea3d3;fill-opacity:1;fill-rule:nonzero;stroke:none"
             id="path3520" /></g><g
           id="g3522"
           transform="translate(406.3042,74.7183)"><path
             d="M 0,0 C 0.001,-1.27 1.031,-2.299 2.302,-2.304 3.57,-2.299 4.598,-1.273 4.603,0 4.598,1.27 3.57,2.299 2.302,2.3 1.031,2.299 0.001,1.266 0,0 m -3.682,0 c 0.003,3.302 2.675,5.979 5.984,5.979 3.302,0 5.98,-2.677 5.98,-5.979 0,-3.306 -2.678,-5.983 -5.98,-5.983 -3.309,0 -5.981,2.677 -5.984,5.983"
             style="fill:#7ea3d3;fill-opacity:1;fill-rule:nonzero;stroke:none"
             id="path3524" /></g></g></g></g></svg>